<svg width="19" height="23" viewBox="0 0 19 23" fill="none" xmlns="http://www.w3.org/2000/svg">
<path d="M11.8788 1.96101H3.87882C3.34839 1.96101 2.83968 2.17173 2.46461 2.5468C2.08953 2.92187 1.87882 3.43058 1.87882 3.96101V19.961C1.87882 20.4914 2.08953 21.0002 2.46461 21.3752C2.83968 21.7503 3.34839 21.961 3.87882 21.961H15.8788C16.4093 21.961 16.918 21.7503 17.293 21.3752C17.6681 21.0002 17.8788 20.4914 17.8788 19.961V7.96101L11.8788 1.96101Z" stroke="black" stroke-width="2" stroke-linecap="round" stroke-linejoin="round"/>
<path d="M11.8788 1.96101V7.96101H17.8788" stroke="black" stroke-width="2" stroke-linecap="round" stroke-linejoin="round"/>
<path d="M13.8788 12.961H5.87882" stroke="black" stroke-width="2" stroke-linecap="round" stroke-linejoin="round"/>
<path d="M13.8788 16.961H5.87882" stroke="black" stroke-width="2" stroke-linecap="round" stroke-linejoin="round"/>
<path d="M7.87882 8.96101H6.87882H5.87882" stroke="black" stroke-width="2" stroke-linecap="round" stroke-linejoin="round"/>
</svg>
